<svg width="864" height="587" viewBox="0 0 864 587" fill="none" xmlns="http://www.w3.org/2000/svg">
<path d="M169.765 331.721C173.685 331.721 176.165 331.001 177.205 329.561C178.325 328.121 178.885 325.681 178.885 322.241V298.961H171.205V296.321H205.765V298.961H201.085V332.801H199.285C197.845 330.801 195.805 329.801 193.165 329.801C192.045 329.801 188.685 330.521 183.085 331.961C177.565 333.401 172.845 334.121 168.925 334.121C155.885 334.121 145.765 330.601 138.565 323.561C131.445 316.521 127.885 305.961 127.885 291.881C127.885 277.721 131.605 266.801 139.045 259.121C146.565 251.441 156.645 247.601 169.285 247.601C174.165 247.601 179.045 248.241 183.925 249.521C188.885 250.721 191.765 251.321 192.565 251.321C193.365 251.321 193.965 251.161 194.365 250.841C194.765 250.441 195.205 249.801 195.685 248.921H197.005L197.965 274.961H195.805C191.885 267.201 187.925 261.121 183.925 256.721C180.005 252.241 175.605 250.001 170.725 250.001C158.485 250.001 152.365 261.961 152.365 285.881V295.361C152.365 307.361 153.845 316.441 156.805 322.601C159.845 328.681 164.165 331.721 169.765 331.721ZM274.28 295.841V286.961C274.28 272.321 273.56 263.081 272.12 259.241C270.52 254.841 268.24 252.121 265.28 251.081C263.6 250.441 261.56 250.121 259.16 250.121C256.76 250.121 254.68 250.441 252.92 251.081C251.24 251.721 249.84 252.841 248.72 254.441C247.6 256.041 246.68 257.721 245.96 259.481C245.32 261.241 244.8 263.721 244.4 266.921C243.92 271.561 243.68 278.401 243.68 287.441V296.081C243.68 305.841 244.04 312.801 244.76 316.961C245.56 321.041 246.52 323.961 247.64 325.721C250.12 329.641 253.96 331.601 259.16 331.601C265.48 331.601 269.56 328.961 271.4 323.681C273.32 318.321 274.28 309.041 274.28 295.841ZM258.92 334.121C245.56 334.121 235.56 330.521 228.92 323.321C222.36 316.041 219.08 305.561 219.08 291.881C219.08 278.121 222.6 267.321 229.64 259.481C236.76 251.561 246.8 247.601 259.76 247.601C272.72 247.601 282.48 251.361 289.04 258.881C295.68 266.321 299 276.921 299 290.681C299 304.441 295.64 315.121 288.92 322.721C282.28 330.321 272.28 334.121 258.92 334.121ZM312.446 248.921H355.646V251.561H342.926V330.281H347.246C354.046 330.281 359.446 328.201 363.446 324.041C367.526 319.881 371.646 313.481 375.806 304.841H378.326L376.046 332.921H312.446V330.281H319.526V251.561H312.446V248.921ZM446.358 295.841V286.961C446.358 272.321 445.638 263.081 444.198 259.241C442.598 254.841 440.318 252.121 437.358 251.081C435.678 250.441 433.638 250.121 431.238 250.121C428.838 250.121 426.758 250.441 424.998 251.081C423.318 251.721 421.918 252.841 420.798 254.441C419.678 256.041 418.758 257.721 418.038 259.481C417.398 261.241 416.878 263.721 416.478 266.921C415.998 271.561 415.758 278.401 415.758 287.441V296.081C415.758 305.841 416.118 312.801 416.838 316.961C417.638 321.041 418.598 323.961 419.718 325.721C422.198 329.641 426.038 331.601 431.238 331.601C437.558 331.601 441.638 328.961 443.478 323.681C445.398 318.321 446.358 309.041 446.358 295.841ZM430.998 334.121C417.638 334.121 407.638 330.521 400.998 323.321C394.438 316.041 391.158 305.561 391.158 291.881C391.158 278.121 394.678 267.321 401.718 259.481C408.838 251.561 418.878 247.601 431.838 247.601C444.798 247.601 454.558 251.361 461.118 258.881C467.758 266.321 471.078 276.921 471.078 290.681C471.078 304.441 467.718 315.121 460.998 322.721C454.358 330.321 444.358 334.121 430.998 334.121ZM527.041 311.201L547.921 251.201H538.561V248.921H556.921V251.201H551.281L522.361 334.121H512.281L481.681 251.201H476.161V248.921H515.401V251.201H506.881L527.041 311.201ZM566.59 248.921H603.19V251.201H596.59V289.121L597.55 288.881L631.39 251.201H621.91V248.921H642.91V251.201H635.71L615.07 274.241L643.87 330.641H650.35V332.921H611.83V330.641H617.47L597.67 292.361L596.59 292.601V330.641H603.19V332.921H566.59V330.641H573.19V251.201H566.59V248.921ZM709.555 330.641L700.795 304.721H677.035L667.795 330.641H676.795V332.921H658.435V330.641H664.075L694.675 248.201H704.515L734.755 330.641H740.275V332.921H701.035V330.641H709.555ZM689.395 270.641L678.115 302.081H699.835L689.395 270.641Z" fill="white"/>
<path d="M258.941 533.577H267.941V536.577H262.241V542.127H266.771V545.127H262.241V551.577H267.941V554.577H258.941V533.577ZM274.188 554.877C272.588 554.877 271.378 554.427 270.558 553.527C269.738 552.607 269.328 551.297 269.328 549.597V548.397H272.448V549.837C272.448 551.197 273.018 551.877 274.158 551.877C274.718 551.877 275.138 551.717 275.418 551.397C275.718 551.057 275.868 550.517 275.868 549.777C275.868 548.897 275.668 548.127 275.268 547.467C274.868 546.787 274.128 545.977 273.048 545.037C271.688 543.837 270.738 542.757 270.198 541.797C269.658 540.817 269.388 539.717 269.388 538.497C269.388 536.837 269.808 535.557 270.648 534.657C271.488 533.737 272.708 533.277 274.308 533.277C275.888 533.277 277.078 533.737 277.878 534.657C278.698 535.557 279.108 536.857 279.108 538.557V539.427H275.988V538.347C275.988 537.627 275.848 537.107 275.568 536.787C275.288 536.447 274.878 536.277 274.338 536.277C273.238 536.277 272.688 536.947 272.688 538.287C272.688 539.047 272.888 539.757 273.288 540.417C273.708 541.077 274.458 541.877 275.538 542.817C276.918 544.017 277.868 545.107 278.388 546.087C278.908 547.067 279.168 548.217 279.168 549.537C279.168 551.257 278.738 552.577 277.878 553.497C277.038 554.417 275.808 554.877 274.188 554.877ZM283.641 536.577H280.191V533.577H290.391V536.577H286.941V554.577H283.641V536.577ZM289.791 551.397H292.971V554.577H289.791V551.397Z" fill="#E9C664"/>
<path d="M604.099 552.297C604.099 550.797 604.339 549.517 604.819 548.457C605.299 547.377 606.159 546.187 607.399 544.887C608.619 543.587 609.459 542.477 609.919 541.557C610.399 540.637 610.639 539.677 610.639 538.677C610.639 537.777 610.489 537.157 610.189 536.817C609.909 536.457 609.489 536.277 608.929 536.277C607.789 536.277 607.219 536.967 607.219 538.347V540.597H604.099V538.557C604.099 536.857 604.519 535.557 605.359 534.657C606.199 533.737 607.419 533.277 609.019 533.277C610.619 533.277 611.839 533.737 612.679 534.657C613.519 535.557 613.939 536.857 613.939 538.557C613.939 539.837 613.629 541.087 613.009 542.307C612.409 543.527 611.359 544.927 609.859 546.507C608.879 547.547 608.219 548.397 607.879 549.057C607.539 549.697 607.369 550.387 607.369 551.127V551.577H613.639V554.577H604.099V552.297ZM620.941 554.877C619.321 554.877 618.081 554.417 617.221 553.497C616.361 552.577 615.931 551.277 615.931 549.597V538.557C615.931 536.877 616.361 535.577 617.221 534.657C618.081 533.737 619.321 533.277 620.941 533.277C622.561 533.277 623.801 533.737 624.661 534.657C625.521 535.577 625.951 536.877 625.951 538.557V549.597C625.951 551.277 625.521 552.577 624.661 553.497C623.801 554.417 622.561 554.877 620.941 554.877ZM620.941 551.877C622.081 551.877 622.651 551.187 622.651 549.807V538.347C622.651 536.967 622.081 536.277 620.941 536.277C619.801 536.277 619.231 536.967 619.231 538.347V549.807C619.231 551.187 619.801 551.877 620.941 551.877ZM628.123 552.297C628.123 550.797 628.363 549.517 628.843 548.457C629.323 547.377 630.183 546.187 631.423 544.887C632.643 543.587 633.483 542.477 633.943 541.557C634.423 540.637 634.663 539.677 634.663 538.677C634.663 537.777 634.513 537.157 634.213 536.817C633.933 536.457 633.513 536.277 632.953 536.277C631.813 536.277 631.243 536.967 631.243 538.347V540.597H628.123V538.557C628.123 536.857 628.543 535.557 629.383 534.657C630.223 533.737 631.443 533.277 633.043 533.277C634.643 533.277 635.863 533.737 636.703 534.657C637.543 535.557 637.963 536.857 637.963 538.557C637.963 539.837 637.653 541.087 637.033 542.307C636.433 543.527 635.383 544.927 633.883 546.507C632.903 547.547 632.243 548.397 631.903 549.057C631.563 549.697 631.393 550.387 631.393 551.127V551.577H637.663V554.577H628.123V552.297ZM645.714 550.767H639.414V547.767L645.414 533.577H649.014V547.767H650.574V550.767H649.014V554.577H645.714V550.767ZM645.714 547.767V539.577H645.654L642.414 547.767H645.714Z" fill="#E9C664"/>
<path d="M458.485 76.7522C459.885 76.7523 461.02 77.8863 461.02 79.2844C461.02 80.6825 459.885 81.8166 458.485 81.8167C457.086 81.8167 455.951 80.6826 455.951 79.2844C455.951 77.8862 457.086 76.7522 458.485 76.7522Z" fill="#BE9359" stroke="#E9C664"/>
<path d="M447.043 19.6483C447.045 15.6963 445.718 11.8583 443.277 8.74955C440.835 5.64079 437.42 3.44132 433.578 2.50371C429.737 1.56611 425.692 1.94469 422.091 3.57875C418.491 5.21281 415.543 8.00771 413.722 11.5154C411.9 15.0232 411.31 19.0405 412.045 22.9236C412.781 26.8066 414.799 30.3305 417.778 32.9302C420.756 35.5299 424.522 37.0549 428.471 37.2608C432.42 37.4667 436.323 36.3415 439.556 34.0656C441.869 32.4377 443.756 30.2783 445.059 27.7693C446.362 25.2603 447.042 22.4751 447.043 19.6483Z" stroke="#E9C664" stroke-width="4" stroke-linecap="round" stroke-linejoin="round"/>
<path d="M504.826 19.6512C504.825 16.1647 503.79 12.7568 501.851 9.85837C499.912 6.95995 497.156 4.70116 493.933 3.36756C490.71 2.03397 487.163 1.68544 483.742 2.36606C480.32 3.04669 477.177 4.72591 474.711 7.1914C472.244 9.65689 470.564 12.798 469.883 16.2175C469.203 19.637 469.552 23.1814 470.887 26.4027C472.221 29.6239 474.482 32.3773 477.382 34.3148C480.283 36.2523 483.693 37.2868 487.181 37.2876C489.499 37.2883 491.794 36.8325 493.935 35.9464C496.076 35.0603 498.022 33.7612 499.66 32.1234C501.299 30.4855 502.599 28.541 503.485 26.401C504.371 24.261 504.827 21.9674 504.826 19.6512V19.6512Z" stroke="#E9C664" stroke-width="4" stroke-linecap="round" stroke-linejoin="round"/>
<path d="M487.574 148.863C487.572 145.412 487.086 141.978 486.129 138.661L468.829 78.6546L462.77 57.6172C461.627 58.0093 460.426 58.2082 459.217 58.2059C458.907 58.2083 458.598 58.194 458.289 58.1629V58.1629C456.465 58.0052 454.707 57.4003 453.172 56.4018C451.637 55.4033 450.372 54.042 449.489 52.4384L439.374 34.1924C436.432 36.2142 432.945 37.2947 429.374 37.2905L447.749 78.6655L458.297 102.318L485.032 162.282C486.708 158.006 487.57 153.455 487.574 148.863V148.863Z" stroke="#E9C664" stroke-width="4" stroke-linecap="round" stroke-linejoin="round"/>
<path d="M489.452 37.1357C485.733 37.6224 481.955 36.9077 478.67 35.0959L462.777 57.6154L469.29 80.2287L489.452 37.1357Z" stroke="#E9C664" stroke-width="4" stroke-linecap="round" stroke-linejoin="round"/>
<path d="M458.45 102.646L447.75 78.6609L430.265 138.661C427.992 146.439 428.382 154.754 431.373 162.285L458.45 102.646Z" stroke="#E9C664" stroke-width="4" stroke-linecap="round" stroke-linejoin="round"/>
<path d="M357.238 81.7533L243.763 82.9814L245.258 170.903" stroke="#E9C664" stroke-opacity="0.913725" stroke-width="4.00058" stroke-linecap="round" stroke-linejoin="round"/>
<path d="M556.155 86.2402H669.624V174.162" stroke="#E9C664" stroke-opacity="0.913725" stroke-width="4" stroke-linecap="round" stroke-linejoin="round"/>
<path d="M245.649 391.548V489.974L460.24 584L670.91 489.974V391.548" stroke="#E9C664" stroke-opacity="0.913725" stroke-width="4" stroke-linecap="round"/>
<path d="M306.782 496.357V489.197H307.262C307.956 491.517 308.889 493.143 310.062 494.077C311.236 495.01 312.702 495.477 314.462 495.477C317.182 495.477 318.542 494.61 318.542 492.877C318.542 492.13 318.209 491.57 317.542 491.197C316.502 490.61 315.169 490.157 313.542 489.837C311.729 489.357 310.209 488.717 308.982 487.917C307.516 486.957 306.782 485.437 306.782 483.357C306.782 481.277 307.422 479.623 308.702 478.397C309.982 477.143 311.689 476.517 313.822 476.517C315.129 476.517 316.476 476.823 317.862 477.437C318.369 477.65 318.756 477.757 319.022 477.757C319.289 477.757 319.516 477.663 319.702 477.477C319.889 477.29 320.116 476.943 320.382 476.437H320.822V482.557H320.342C318.982 479.09 316.876 477.357 314.022 477.357C312.769 477.357 311.836 477.583 311.222 478.037C310.609 478.463 310.302 479.01 310.302 479.677C310.302 480.077 310.396 480.397 310.582 480.637C310.769 480.85 310.916 481.01 311.022 481.117C311.129 481.223 311.302 481.343 311.542 481.477C311.782 481.583 311.982 481.677 312.142 481.757C312.302 481.81 312.542 481.89 312.862 481.997C313.209 482.103 313.462 482.17 313.622 482.197C315.436 482.65 316.742 483.05 317.542 483.397C318.342 483.717 319.102 484.117 319.822 484.597C321.289 485.61 322.022 487.25 322.022 489.517C322.022 491.757 321.356 493.463 320.022 494.637C318.689 495.783 316.862 496.357 314.542 496.357C312.889 496.357 311.289 495.97 309.742 495.197C309.422 494.983 309.169 494.877 308.982 494.877C308.396 494.877 307.822 495.37 307.262 496.357H306.782ZM323.206 465.957H332.846V480.597C333.273 479.37 333.926 478.383 334.806 477.637C335.686 476.89 337.019 476.517 338.806 476.517C342.939 476.517 345.006 478.743 345.006 483.197V495.237H347.246V495.957H335.926V495.237H337.566V482.237C337.566 480.637 337.459 479.61 337.246 479.157C337.033 478.677 336.646 478.437 336.086 478.437C335.233 478.437 334.473 478.997 333.806 480.117C333.166 481.237 332.846 482.597 332.846 484.197V495.237H334.566V495.957H323.206V495.237H325.406V466.677H323.206V465.957ZM357.455 486.557H358.615V483.477C358.615 480.943 358.468 479.25 358.175 478.397C357.908 477.517 357.375 477.077 356.575 477.077C356.095 477.077 355.655 477.21 355.255 477.477C354.881 477.717 354.695 478.063 354.695 478.517C354.695 478.943 354.775 479.383 354.935 479.837H355.935C356.148 480.397 356.255 481.077 356.255 481.877C356.255 482.65 355.921 483.33 355.255 483.917C354.588 484.477 353.748 484.757 352.735 484.757C350.441 484.757 349.295 483.65 349.295 481.437C349.295 478.157 352.081 476.517 357.655 476.517C360.828 476.517 363.015 477.063 364.215 478.157C365.441 479.223 366.055 481.197 366.055 484.077V492.197C366.055 493.583 366.441 494.277 367.215 494.277C368.121 494.277 368.655 492.903 368.815 490.157L369.415 490.197C369.308 492.543 368.868 494.157 368.095 495.037C367.321 495.917 366.055 496.357 364.295 496.357C361.095 496.357 359.255 495.37 358.775 493.397C358.428 494.41 357.908 495.157 357.215 495.637C356.521 496.117 355.508 496.357 354.175 496.357C350.228 496.357 348.255 494.743 348.255 491.517C348.255 489.623 349.001 488.33 350.495 487.637C352.015 486.917 354.335 486.557 357.455 486.557ZM355.855 491.477C355.855 492.863 355.921 493.757 356.055 494.157C356.215 494.557 356.495 494.757 356.895 494.757C357.321 494.757 357.708 494.423 358.055 493.757C358.428 493.063 358.615 492.117 358.615 490.917V487.197H358.335C356.681 487.197 355.855 488.41 355.855 490.837V491.477ZM367.025 477.637V476.917H378.985V477.637H376.465L381.265 490.917L385.585 477.637H382.905V476.917H388.305V477.637H386.545L380.625 495.957H376.065L368.665 477.637H367.025ZM398.218 496.357C394.778 496.357 392.192 495.477 390.458 493.717C388.752 491.93 387.898 489.463 387.898 486.317C387.898 483.143 388.858 480.717 390.778 479.037C392.725 477.357 395.192 476.517 398.178 476.517C404.232 476.517 407.138 479.557 406.898 485.637H395.618V487.197C395.618 489.81 395.952 491.783 396.618 493.117C397.285 494.45 398.445 495.117 400.098 495.117C403.192 495.117 405.218 493.463 406.178 490.157L406.898 490.277C406.392 492.197 405.472 493.69 404.138 494.757C402.832 495.823 400.858 496.357 398.218 496.357ZM395.658 484.837H399.778V482.877C399.778 480.717 399.645 479.25 399.378 478.477C399.138 477.677 398.632 477.277 397.858 477.277C397.112 477.277 396.552 477.703 396.178 478.557C395.832 479.383 395.658 480.823 395.658 482.877V484.837ZM408.853 496.357V489.197H409.333C410.026 491.517 410.959 493.143 412.133 494.077C413.306 495.01 414.773 495.477 416.533 495.477C419.253 495.477 420.613 494.61 420.613 492.877C420.613 492.13 420.279 491.57 419.613 491.197C418.573 490.61 417.239 490.157 415.613 489.837C413.799 489.357 412.279 488.717 411.053 487.917C409.586 486.957 408.853 485.437 408.853 483.357C408.853 481.277 409.493 479.623 410.773 478.397C412.053 477.143 413.759 476.517 415.893 476.517C417.199 476.517 418.546 476.823 419.933 477.437C420.439 477.65 420.826 477.757 421.093 477.757C421.359 477.757 421.586 477.663 421.773 477.477C421.959 477.29 422.186 476.943 422.453 476.437H422.893V482.557H422.413C421.053 479.09 418.946 477.357 416.093 477.357C414.839 477.357 413.906 477.583 413.293 478.037C412.679 478.463 412.373 479.01 412.373 479.677C412.373 480.077 412.466 480.397 412.653 480.637C412.839 480.85 412.986 481.01 413.093 481.117C413.199 481.223 413.373 481.343 413.613 481.477C413.853 481.583 414.053 481.677 414.213 481.757C414.373 481.81 414.613 481.89 414.933 481.997C415.279 482.103 415.533 482.17 415.693 482.197C417.506 482.65 418.813 483.05 419.613 483.397C420.413 483.717 421.173 484.117 421.893 484.597C423.359 485.61 424.093 487.25 424.093 489.517C424.093 491.757 423.426 493.463 422.093 494.637C420.759 495.783 418.933 496.357 416.613 496.357C414.959 496.357 413.359 495.97 411.813 495.197C411.493 494.983 411.239 494.877 411.053 494.877C410.466 494.877 409.893 495.37 409.333 496.357H408.853ZM452.664 504.997C453.971 504.997 454.971 504.37 455.664 503.117C456.384 501.863 456.744 500.317 456.744 498.477C456.744 496.637 456.037 494.77 454.624 492.877C452.597 495.197 449.811 496.357 446.264 496.357C442.717 496.357 439.891 495.757 437.784 494.557C435.704 493.357 434.664 491.463 434.664 488.877C434.664 487.09 435.144 485.65 436.104 484.557C437.064 483.463 438.677 482.663 440.944 482.157C438.597 480.023 437.424 477.703 437.424 475.197C437.424 472.663 438.304 470.757 440.064 469.477C441.851 468.17 444.064 467.517 446.704 467.517C449.344 467.517 451.317 467.997 452.624 468.957C453.957 469.917 454.624 471.21 454.624 472.837C454.624 475.663 452.477 477.823 448.184 479.317C448.717 479.663 449.691 480.277 451.104 481.157C454.064 483.077 456.157 484.623 457.384 485.797C457.784 483.903 458.011 481.957 458.064 479.957H454.904V479.157H461.864V479.957H459.064C459.011 482.463 458.757 484.717 458.304 486.717C459.451 487.997 460.317 489.223 460.904 490.397C461.491 491.57 461.784 493.05 461.784 494.837C461.784 497.717 460.771 500.29 458.744 502.557C456.717 504.823 454.411 505.957 451.824 505.957C450.091 505.957 448.744 505.597 447.784 504.877C446.824 504.157 446.344 503.237 446.344 502.117C446.344 500.997 446.651 500.117 447.264 499.477C447.904 498.863 448.704 498.557 449.664 498.557C451.797 498.557 452.864 499.517 452.864 501.437C452.864 501.837 452.784 502.317 452.624 502.877H451.224C450.744 504.29 451.224 504.997 452.664 504.997ZM447.224 495.317C450.051 495.317 452.291 494.223 453.944 492.037C452.717 490.757 450.997 489.37 448.784 487.877C444.971 485.37 442.544 483.663 441.504 482.757C441.104 483.61 440.904 485.343 440.904 487.957C440.904 490.57 441.424 492.45 442.464 493.597C443.504 494.743 445.091 495.317 447.224 495.317ZM446.504 468.357C445.491 468.357 444.624 468.677 443.904 469.317C443.184 469.93 442.824 470.917 442.824 472.277C442.824 473.637 443.144 474.757 443.784 475.637C444.424 476.517 445.651 477.583 447.464 478.837C448.584 478.25 449.277 477.543 449.544 476.717C449.837 475.89 449.984 474.677 449.984 473.077C449.984 469.93 448.824 468.357 446.504 468.357ZM474.542 490.237V477.637H472.342V476.917H474.542V471.757L481.982 469.917V476.917H487.182V477.637H481.982V491.117C481.982 492.37 482.102 493.29 482.342 493.877C482.609 494.463 483.142 494.757 483.942 494.757C484.742 494.757 485.435 494.357 486.022 493.557C486.635 492.757 487.035 491.663 487.222 490.277L487.902 490.357C487.689 492.197 487.102 493.663 486.142 494.757C485.182 495.823 483.595 496.357 481.382 496.357C479.169 496.357 477.475 495.917 476.302 495.037C475.129 494.157 474.542 492.557 474.542 490.237ZM501.644 478.037C500.658 478.037 499.791 478.677 499.044 479.957C498.298 481.237 497.924 482.757 497.924 484.517V495.237H500.764V495.957H488.284V495.237H490.484V477.637H488.284V476.917H497.924V480.757C498.271 479.397 498.938 478.357 499.924 477.637C500.911 476.89 502.031 476.517 503.284 476.517C504.538 476.517 505.551 476.877 506.324 477.597C507.124 478.29 507.524 479.29 507.524 480.597C507.524 481.877 507.231 482.863 506.644 483.557C506.058 484.25 505.151 484.597 503.924 484.597C502.724 484.597 501.831 484.197 501.244 483.397C500.684 482.597 500.618 481.49 501.044 480.077H502.484C503.151 478.717 502.871 478.037 501.644 478.037ZM513.969 474.157C512.556 474.157 511.542 473.797 510.929 473.077C510.342 472.357 510.049 471.463 510.049 470.397C510.049 469.33 510.369 468.45 511.009 467.757C511.676 467.063 512.676 466.717 514.009 466.717C515.342 466.717 516.356 467.037 517.049 467.677C517.742 468.29 518.089 469.183 518.089 470.357C518.089 471.503 517.756 472.423 517.089 473.117C516.422 473.81 515.382 474.157 513.969 474.157ZM507.929 476.917H517.729V495.237H519.969V495.957H508.089V495.237H510.289V477.637H507.929V476.917ZM520.784 476.917H530.424V480.597C531.304 477.877 533.238 476.517 536.224 476.517C539.238 476.517 541.064 477.957 541.704 480.837C542.638 477.957 544.598 476.517 547.584 476.517C551.504 476.517 553.464 478.743 553.464 483.197V495.237H555.704V495.957H544.624V495.237H546.024V482.237C546.024 480.21 545.851 479.023 545.504 478.677C545.344 478.517 545.131 478.437 544.864 478.437C544.091 478.437 543.411 478.957 542.824 479.997C542.238 481.037 541.944 482.357 541.944 483.957V495.237H543.384V495.957H533.104V495.237H534.504V482.237C534.504 480.21 534.331 479.023 533.984 478.677C533.824 478.517 533.611 478.437 533.344 478.437C532.598 478.437 531.918 479.01 531.304 480.157C530.718 481.277 530.424 482.623 530.424 484.197V495.237H531.864V495.957H520.784V495.237H522.984V477.637H520.784V476.917ZM557.212 496.357V489.197H557.692C558.385 491.517 559.319 493.143 560.492 494.077C561.665 495.01 563.132 495.477 564.892 495.477C567.612 495.477 568.972 494.61 568.972 492.877C568.972 492.13 568.639 491.57 567.972 491.197C566.932 490.61 565.599 490.157 563.972 489.837C562.159 489.357 560.639 488.717 559.412 487.917C557.945 486.957 557.212 485.437 557.212 483.357C557.212 481.277 557.852 479.623 559.132 478.397C560.412 477.143 562.119 476.517 564.252 476.517C565.559 476.517 566.905 476.823 568.292 477.437C568.799 477.65 569.185 477.757 569.452 477.757C569.719 477.757 569.945 477.663 570.132 477.477C570.319 477.29 570.545 476.943 570.812 476.437H571.252V482.557H570.772C569.412 479.09 567.305 477.357 564.452 477.357C563.199 477.357 562.265 477.583 561.652 478.037C561.039 478.463 560.732 479.01 560.732 479.677C560.732 480.077 560.825 480.397 561.012 480.637C561.199 480.85 561.345 481.01 561.452 481.117C561.559 481.223 561.732 481.343 561.972 481.477C562.212 481.583 562.412 481.677 562.572 481.757C562.732 481.81 562.972 481.89 563.292 481.997C563.639 482.103 563.892 482.17 564.052 482.197C565.865 482.65 567.172 483.05 567.972 483.397C568.772 483.717 569.532 484.117 570.252 484.597C571.719 485.61 572.452 487.25 572.452 489.517C572.452 491.757 571.785 493.463 570.452 494.637C569.119 495.783 567.292 496.357 564.972 496.357C563.319 496.357 561.719 495.97 560.172 495.197C559.852 494.983 559.599 494.877 559.412 494.877C558.825 494.877 558.252 495.37 557.692 496.357H557.212Z" fill="white"/>
<path d="M432.776 366.716C428.359 366.708 424.024 367.913 420.245 370.199C416.467 372.486 413.389 375.766 411.348 379.681C407.552 387.229 401.06 393.078 393.155 396.071C391.05 396.9 388.817 397.362 386.555 397.438C380.628 397.458 374.837 395.663 369.961 392.296C373.748 401.005 380.022 408.404 387.997 413.565C395.973 418.727 405.294 421.422 414.795 421.313C425.635 421.356 436.188 417.837 444.829 411.296C456.566 401.922 456.023 390.609 456.023 390.609C456.024 377.412 446.077 366.716 432.776 366.716Z" stroke="#E9C664" stroke-width="4" stroke-linecap="round" stroke-linejoin="round"/>
<path d="M525.347 397.432C523.085 397.358 520.853 396.896 518.747 396.066C510.845 393.075 504.354 387.228 500.557 379.682C498.517 375.767 495.439 372.487 491.66 370.201C487.881 367.914 483.547 366.709 479.129 366.717C465.829 366.717 455.881 377.411 455.881 390.603C455.881 390.603 455.334 401.913 467.075 411.29C475.717 417.83 486.27 421.349 497.109 421.307C506.61 421.415 515.931 418.72 523.905 413.559C531.88 408.398 538.154 401 541.941 392.292C537.066 395.659 531.274 397.453 525.347 397.432Z" stroke="#E9C664" stroke-width="4" stroke-linecap="round" stroke-linejoin="round"/>
</svg>
